<?xml version="1.0" encoding="utf-8"?>
<!-- Generator: Adobe Illustrator 24.3.0, SVG Export Plug-In . SVG Version: 6.00 Build 0)  -->
<svg version="1.1" id="Camada_1" xmlns="http://www.w3.org/2000/svg" xmlns:xlink="http://www.w3.org/1999/xlink" x="0px" y="0px"
	 viewBox="0 0 259.6 108.4" style="enable-background:new 0 0 259.6 108.4;" xml:space="preserve">
<style type="text/css">
	.st0{fill:#15A04B;}
	.st1{fill:#FFFFFF;}
</style>
<g>
	<g>
		<path id="path_1_" class="st0" d="M58.4,44.8L39.2,25.7c-1.5-1.5-1.5-3.9,0-5.4L58.4,1.2c1.5-1.5,3.9-1.5,5.4,0l19.1,19.1
			c1.5,1.5,1.5,3.9,0,5.4L63.8,44.8c-0.4,0.4-0.8,0.7-1.3,0.8h-2.9C59.2,45.5,58.7,45.2,58.4,44.8z"/>
		<path id="branch_1_" class="st1" d="M73.9,15.1c-1.3,0-2.3,1-2.3,2.3c0,1,0.7,1.9,1.6,2.2v4.3c0,2.4-1.5,3.8-4.9,4.3
			c-0.5-0.9-1.4-1.5-3-1.7l0,0c-1.2-0.2-2.1-0.5-2.8-1.1v-1.1c0.7-0.6,1.6-0.9,2.8-1.1l0,0c2.2-0.3,3.3-1.3,3.3-3v-2.5
			c1-0.2,1.8-1.1,1.8-2.2c0-1.3-1-2.3-2.3-2.3s-2.3,1-2.3,2.3c0,1.1,0.8,2,1.8,2.2v2.5c0,1.1-0.7,1.7-2.4,2c-1.1,0.1-2,0.4-2.7,0.8
			v-7.5c0.8-0.5,1.4-1.4,1.4-2.4c0-1.6-1.3-2.8-2.8-2.8c-1.6,0-2.8,1.3-2.8,2.8c0,1,0.6,1.9,1.4,2.4v6.4c-0.6-0.3-1.4-0.5-2.3-0.6
			c-2.1-0.3-2.4-1.2-2.4-2v-1.8c1-0.2,1.8-1.1,1.8-2.2c0-1.3-1-2.3-2.3-2.3s-2.3,1-2.3,2.3c0,1.1,0.8,2,1.8,2.2v1.8
			c0,1.7,1.1,2.7,3.2,3c1,0.2,1.8,0.4,2.4,0.8v3.6c-1.4-0.9-3.3-1.5-5.5-1.8c-3.5-0.5-5-1.8-5-4.3v-1c0.9-0.3,1.6-1.2,1.6-2.2
			c0-1.3-1-2.3-2.3-2.3s-2.3,1-2.3,2.3c0,1,0.7,1.9,1.6,2.2v1c0,1.8,0.7,3.2,2,4.2c1,0.8,2.4,1.3,4.3,1.5l0,0c2.5,0.3,4.4,1,5.7,2.2
			v17.2c0.9,0.4,2,0.3,2.9,0V38c0.7-0.6,1.6-0.9,2.8-1.1l0,0c2.2-0.3,3.3-1.3,3.3-3v-0.4c0.7-0.2,1.2-0.9,1.2-1.6s-0.5-1.4-1.2-1.6
			v-0.8c1.8-0.3,3.1-0.8,4.1-1.5c1.3-1,2-2.4,2-4.2v-4.3c0.8-0.3,1.5-1.2,1.5-2.2c0-0.6-0.2-1.2-0.7-1.6
			C75.1,15.3,74.5,15.1,73.9,15.1z M66.6,15.4c0-0.8,0.7-1.5,1.4-1.5c0.8,0,1.4,0.7,1.4,1.5c0,0.8-0.7,1.4-1.4,1.4
			C67.2,16.9,66.6,16.2,66.6,15.4z M54.5,16.7c-0.8,0-1.4-0.7-1.4-1.4c0-0.8,0.7-1.4,1.4-1.4c0.8,0,1.4,0.7,1.4,1.4
			C55.9,16.1,55.2,16.7,54.5,16.7z M48.3,18.8c-0.8,0-1.4-0.6-1.4-1.4s0.7-1.4,1.4-1.4c0.8,0,1.4,0.7,1.4,1.4
			C49.8,18.1,49.1,18.8,48.3,18.8z M61,15c-1.1,0-2-0.9-2-2s0.9-2,2-2s2,0.9,2,2S62.1,15,61,15z M62.5,26.6c0.7,0.4,1.6,0.7,2.7,0.8
			c1,0.2,1.7,0.4,2,0.9c-1.9,0.3-3.4,0.9-4.7,1.7C62.5,30,62.5,26.6,62.5,26.6z M67.5,30.4c-0.7,0.2-1.2,0.9-1.2,1.6
			c0,0.8,0.5,1.4,1.2,1.6V34c0,1.1-0.7,1.7-2.4,2c-1.1,0.1-1.9,0.4-2.6,0.8v-4.9c1.2-1.1,2.9-1.8,5-2.1V30.4z M73.9,18.8
			c-0.8,0-1.4-0.7-1.4-1.4c0-0.8,0.7-1.4,1.4-1.4c0.4,0,0.8,0.2,1,0.4c0.3,0.3,0.4,0.6,0.4,1C75.3,18.2,74.7,18.8,73.9,18.8z"/>
	</g>
	<g>
		<path class="st1" d="M19,38c6.1,0,7.5,0.3,11,1.7l-1,6.4c0,0-4.2-0.7-8.6-0.7c-3.6,0-5.1-0.2-6.4,8.5c-1.1,7-0.6,8.4,3.7,8.4
			c4.5,0,8.7-0.4,8.7-0.4l-1,6.4c-2.8,1.1-5.1,1.5-11.4,1.4C6.1,69.6,4.1,63,5.7,52.5C7.2,42.6,10.5,38,19,38z"/>
		<path class="st1" d="M44.6,38.1c7.4,0,12.7,2.5,10.4,17.1c-2.2,13.7-7.7,14.5-15.4,14.5s-12.7-2.4-10.4-16.6
			C31.5,38.5,37.4,38.1,44.6,38.1z M40.7,62.3c3.7,0,4.9-1.5,6-8.1c1.1-7.2,0.6-8.6-3.3-8.6c-3.7,0-4.8,1-6,8.6
			C36.4,60.6,36.6,62.3,40.7,62.3z"/>
		<path class="st1" d="M60.4,38.4h8.3l6.4,16.1l2.5-16.1h8.3L81,69.5h-8.3l-6.5-15.7l-2.5,15.7h-8.3L60.4,38.4z"/>
		<path class="st1" d="M87.7,46c1-6.1,5.3-7.7,9.1-7.7c0,0,8,0,12.9,0.7l-1.1,6.9H98.2c-2.2,0-2.4,1.2-2.6,2.4l-0.3,1.9l10.5,0.5
			l-1.1,6.9L94,58l-1.8,11.6H84L87.7,46z"/>
		<path class="st1" d="M111.4,45.2c1-6.1,5.3-6.8,9.1-6.8c0,0,8,0,12.9,0.7l-1.1,6.9h-10.5c-2.2,0-2.4,1.2-2.6,2.4l-0.3,1.7
			l10.5,0.5l-1.1,6.8l-10.6,0.4l-0.3,2c-0.4,2.3,1.1,2.2,2.3,2.2h10.1l-1.1,6.9c-4.5,0.6-12.8,0.7-12.8,0.7c-3.2,0.1-8.2-1-7.2-7.5
			L111.4,45.2z"/>
		<path class="st1" d="M136.4,38.4h13.1c5.5,0,9.2,3.3,8,11.1c-1.2,7.4-4.3,8-6.1,8.3l4.3,11.8h-9.4l-3.2-11.4l-1.5-0.2l-1.8,11.6
			h-8.3L136.4,38.4z M146.3,51.7c2.2,0,2.5-1.1,2.9-3.3c0.3-1.9,0-3-1.8-3h-3.7l-1,6.3H146.3z"/>
		<path class="st1" d="M160.5,45.2c1-6.1,5.3-6.8,9.1-6.8c0,0,8,0,12.9,0.7l-1.1,6.9h-10.5c-2.2,0-2.4,1.2-2.6,2.4l-0.3,1.7
			l10.5,0.5l-1.1,6.8l-10.6,0.4l-0.3,2c-0.4,2.3,1.1,2.2,2.3,2.2h10.1l-1.1,6.9c-4.5,0.6-12.8,0.7-12.8,0.7c-3.2,0.1-8.2-1-7.2-7.5
			L160.5,45.2z"/>
		<path class="st1" d="M185.6,38.4h8.3l6.4,16.1l2.5-16.1h8.3l-4.9,31.1h-8.3l-6.5-15.7l-2.5,15.7h-8.3L185.6,38.4z"/>
		<path class="st1" d="M224.6,38c6.1,0,7.5,0.3,11,1.7l-1,6.4c0,0-4.2-0.7-8.6-0.7c-3.6,0-5.1-0.2-6.4,8.5c-1.1,7-0.6,8.4,3.7,8.4
			c4.5,0,8.7-0.4,8.7-0.4l-1,6.4c-2.8,1.1-5.1,1.5-11.4,1.4c-7.8-0.1-9.9-6.8-8.3-17.2C212.8,42.6,216.1,38,224.6,38z"/>
		<path class="st1" d="M237,45.2c1-6.1,5.3-6.8,9.1-6.8c0,0,8,0,12.9,0.7l-1.1,6.9h-10.5c-2.2,0-2.4,1.2-2.6,2.4l-0.3,1.7l10.5,0.5
			l-1.1,6.8l-10.6,0.4l-0.3,2c-0.4,2.3,1.1,2.2,2.3,2.2h10.1l-1.1,6.9c-4.5,0.6-12.8,0.7-12.8,0.7c-3.2,0.1-8.2-1-7.2-7.5L237,45.2z
			"/>
	</g>
	<g>
		<path class="st1" d="M81.6,12c0,0,8.6,0,9.5,0c6.7,0,7.3,6.6,6.4,12.3c-1.3,8-4.1,11.1-9.8,11.1h-9.6L81.6,12z M87.7,31.5
			c3,0,4.6-3,5.3-7.7c1-6.1-0.2-7.8-3-7.8h-4.5L83,31.5H87.7z"/>
		<path class="st1" d="M101.6,16.7c0.6-3.9,3.2-4.7,5.9-4.7c0,0,7.9,0.2,9.9,0.5l-0.6,3.7h-8.9c-1.6,0-1.8,0.9-1.9,1.8l-0.6,3.6
			l9.1,0.3l-0.6,3.7l-9.1,0.3l-0.6,3.7c-0.3,1.7,0.8,1.7,1.7,1.7h8.6l-0.6,3.7c-1.9,0.2-9.8,0.5-9.8,0.5c-2.3,0.1-5.3-0.9-4.6-4.9
			L101.6,16.7z"/>
		<path class="st1" d="M124,12l2.4,17.5l8.2-17.5h5l-11.5,23.4h-5.2L119.3,12H124z"/>
		<path class="st1" d="M142.3,12h9.8c2.9,0,6.3,1.7,5.4,7.8c-1.1,7.4-5,7.1-7.7,7c-1.3-0.1-5.1-0.5-5.2-0.6l-1.5,9.3h-4.5L142.3,12z
			 M150.1,22.8c1.4,0,2.5-0.7,2.9-3.5s-0.6-3.3-1.8-3.3h-5l-1.1,6.8H150.1z"/>
		<path class="st1" d="M165.7,12h5.1l3.9,23.4h-4.6l-0.9-5.2h-7.6l-2.6,5.2h-5L165.7,12z M168.8,26.3l-1.3-8.5l-4.1,8.5H168.8z"/>
		<path class="st1" d="M180.6,12h9.9c3.5,0,6,2.1,5.2,7.8c-0.8,5.8-3.7,6.3-4.8,6.5l3.3,9.2h-5.1l-2.7-9l-3.6-0.3l-1.5,9.2h-4.5
			L180.6,12z M188.3,22.7c1.7,0,2.7-0.9,2.9-3.4c0.3-2.7-0.3-3.3-1.8-3.3h-4.9l-1.1,6.7H188.3z"/>
		<path class="st1" d="M207.1,12h5.1l3.9,23.4h-4.6l-0.9-5.2H203l-2.6,5.2h-5L207.1,12z M210.1,26.3l-1.3-8.5l-4.1,8.5H210.1z"/>
		<path class="st1" d="M222,12h4.5l6.7,15.2l2.4-15.2h4.5l-3.7,23.4H232l-6.7-15.1l-2.4,15.1h-4.5L222,12z"/>
		<path class="st1" d="M250.5,12h5.1l3.9,23.4h-4.6l-0.9-5.2h-7.6l-2.6,5.2h-5L250.5,12z M253.6,26.3l-1.3-8.5l-4.1,8.5H253.6z
			 M255.5,5.5h3.9l-4.6,4.4h-2.9L255.5,5.5z"/>
	</g>
	<g>
		<path class="st0" d="M0.4,107.9l0.8-5.4l12.9-11.2c1.7-1.5,3-3,3.8-4.3c0.8-1.4,1.2-2.6,1.2-3.7c0-0.6-0.1-1.2-0.4-1.6
			c-0.2-0.4-0.6-0.8-1.2-1c-0.5-0.2-1.3-0.4-2.2-0.4H5.5L6.4,75c1.4-0.2,2.9-0.5,4.6-0.7c1.7-0.2,3.6-0.4,5.7-0.4c2.2,0,4,0.3,5.4,1
			c1.3,0.7,2.3,1.5,2.9,2.6c0.6,1.1,0.9,2.4,0.9,3.8c0,2.2-0.5,4.4-1.5,6.6c-1,2.2-2.7,4.3-5.1,6.4l-8.5,7.5h13.7l-1,6.1H0.4z"/>
		<path class="st0" d="M36.3,108.1c-1.6,0-3-0.2-4.2-0.8c-1.2-0.5-2-1.2-2.6-2.2c-0.6-1-0.9-2.2-0.9-3.7c0-0.3,0-0.6,0-1
			c0-0.3,0.1-0.7,0.1-1.1L31.4,83c0.3-2,1-3.6,1.9-5c0.9-1.4,2.1-2.4,3.6-3.1c1.4-0.7,3.1-1,4.9-1h7.1c2.4,0,4.3,0.6,5.5,1.8
			c1.2,1.2,1.8,2.9,1.8,5c0,0.3,0,0.7,0,1.1c0,0.4-0.1,0.8-0.1,1.2l-2.6,16.4c-0.5,2.8-1.6,5-3.3,6.5c-1.7,1.5-4,2.2-6.7,2.2H36.3z
			 M38.9,102h3.6c1.2,0,2.2-0.3,2.9-0.9s1.1-1.5,1.3-2.7l2.3-14.8c0.1-0.2,0.1-0.4,0.1-0.5c0-0.2,0-0.3,0-0.5c0-0.9-0.3-1.6-0.8-2
			c-0.5-0.4-1.2-0.6-2.1-0.6h-4.1c-1.1,0-2,0.3-2.7,0.9c-0.7,0.6-1.1,1.5-1.3,2.7l-2.3,14.7c0,0.2-0.1,0.3-0.1,0.5
			c0,0.2,0,0.3,0,0.5c0,0.9,0.3,1.6,0.8,2C37.1,101.8,37.9,102,38.9,102z"/>
		<path class="st0" d="M56.6,107.9l0.8-5.4l12.9-11.2c1.7-1.5,3-3,3.8-4.3c0.8-1.4,1.2-2.6,1.2-3.7c0-0.6-0.1-1.2-0.4-1.6
			c-0.2-0.4-0.6-0.8-1.2-1c-0.5-0.2-1.3-0.4-2.2-0.4h-9.7l0.9-5.3c1.4-0.2,2.9-0.5,4.6-0.7c1.7-0.2,3.6-0.4,5.7-0.4
			c2.2,0,4,0.3,5.4,1c1.3,0.7,2.3,1.5,2.9,2.6c0.6,1.1,0.9,2.4,0.9,3.8c0,2.2-0.5,4.4-1.5,6.6c-1,2.2-2.7,4.3-5.1,6.4l-8.5,7.5h13.7
			l-1,6.1H56.6z"/>
		<path class="st0" d="M92.6,108.1c-1.6,0-3-0.2-4.2-0.8c-1.2-0.5-2-1.2-2.6-2.2c-0.6-1-0.9-2.2-0.9-3.7c0-0.3,0-0.6,0-1
			c0-0.3,0.1-0.7,0.1-1.1L87.7,83c0.3-2,1-3.6,1.9-5c0.9-1.4,2.1-2.4,3.6-3.1c1.4-0.7,3.1-1,4.9-1h7.1c2.4,0,4.3,0.6,5.5,1.8
			c1.2,1.2,1.8,2.9,1.8,5c0,0.3,0,0.7,0,1.1c0,0.4-0.1,0.8-0.1,1.2l-2.6,16.4c-0.5,2.8-1.6,5-3.3,6.5c-1.7,1.5-4,2.2-6.7,2.2H92.6z
			 M95.2,102h3.6c1.2,0,2.2-0.3,2.9-0.9c0.7-0.6,1.1-1.5,1.3-2.7l2.3-14.8c0.1-0.2,0.1-0.4,0.1-0.5c0-0.2,0-0.3,0-0.5
			c0-0.9-0.3-1.6-0.8-2c-0.5-0.4-1.2-0.6-2.1-0.6h-4.1c-1.1,0-2,0.3-2.7,0.9c-0.7,0.6-1.1,1.5-1.3,2.7L92,98.3
			c0,0.2-0.1,0.3-0.1,0.5c0,0.2,0,0.3,0,0.5c0,0.9,0.3,1.6,0.8,2S94.1,102,95.2,102z"/>
	</g>
</g>
</svg>
