<?xml version="1.0" encoding="utf-8"?>
<!-- Generator: Adobe Illustrator 23.0.3, SVG Export Plug-In . SVG Version: 6.00 Build 0)  -->
<svg version="1.1" id="Camada_1" xmlns="http://www.w3.org/2000/svg" xmlns:xlink="http://www.w3.org/1999/xlink" x="0px" y="0px"
	 viewBox="0 0 288 464" style="enable-background:new 0 0 288 464;" xml:space="preserve">
<style type="text/css">
	.st0{fill:#092E17;}
	.st1{fill:#007841;}
	.st2{fill:#FFFFFF;}
</style>
<path class="st0" d="M265.3,364.1c-25.4,0-46.1-20.3-46.1-45.4c0-25.1,20.7-45.4,46.1-45.4s46.1,20.5,46.1,45.5
	S290.7,364.1,265.3,364.1z M265.3,278.4c-22.7,0-41.1,18.1-41.1,40.4c0,22.3,18.4,40.3,41.1,40.3s41.1-18.1,41.1-40.3
	C306.4,296.6,288,278.4,265.3,278.4z"/>
<g transform="translate(-5964.608 -12142.823)">
	<circle class="st1" cx="5910" cy="12232.3" r="5.2"/>
	<circle class="st1" cx="5910" cy="12378.3" r="5.2"/>
	<circle class="st1" cx="5910" cy="12305.3" r="5.2"/>
	<circle class="st1" cx="5910" cy="12451.3" r="5.2"/>
	<circle class="st1" cx="5910" cy="12268.8" r="5.2"/>
	<circle class="st1" cx="5910" cy="12414.8" r="5.2"/>
	<circle class="st1" cx="5910" cy="12341.8" r="5.2"/>
	<circle class="st1" cx="5910" cy="12487.8" r="5.2"/>
	<circle class="st1" cx="5910" cy="12250.6" r="5.2"/>
	<circle class="st1" cx="5910" cy="12396.6" r="5.2"/>
	<circle class="st1" cx="5910" cy="12323.6" r="5.2"/>
	<circle class="st1" cx="5910" cy="12469.5" r="5.2"/>
	<circle class="st1" cx="5910" cy="12287.1" r="5.2"/>
	<circle class="st1" cx="5910" cy="12433.1" r="5.2"/>
	<circle class="st1" cx="5910" cy="12360.1" r="5.2"/>
	<circle class="st1" cx="5910" cy="12506" r="5.2"/>
	<circle class="st1" cx="5946.5" cy="12232.3" r="5.2"/>
	<circle class="st1" cx="5946.5" cy="12378.3" r="5.2"/>
	<circle class="st1" cx="5946.5" cy="12305.3" r="5.2"/>
	<circle class="st1" cx="5946.5" cy="12451.3" r="5.2"/>
	<circle class="st1" cx="5946.5" cy="12268.8" r="5.2"/>
	<circle class="st1" cx="5946.5" cy="12414.8" r="5.2"/>
	<circle class="st1" cx="5946.5" cy="12341.8" r="5.2"/>
	<circle class="st1" cx="5946.5" cy="12487.8" r="5.2"/>
	<circle class="st1" cx="5946.5" cy="12250.6" r="5.2"/>
	<circle class="st1" cx="5946.5" cy="12396.6" r="5.2"/>
	<circle class="st1" cx="5946.5" cy="12323.6" r="5.2"/>
	<circle class="st1" cx="5946.5" cy="12469.5" r="5.2"/>
	<circle class="st1" cx="5946.5" cy="12287.1" r="5.2"/>
	<circle class="st1" cx="5946.5" cy="12433.1" r="5.2"/>
	<circle class="st1" cx="5946.5" cy="12360.1" r="5.2"/>
	<circle class="st1" cx="5946.5" cy="12506" r="5.2"/>
	<circle class="st1" cx="5983" cy="12232.3" r="5.2"/>
	<circle class="st1" cx="5983" cy="12378.3" r="5.2"/>
	<circle class="st1" cx="5983" cy="12305.3" r="5.2"/>
	<circle class="st1" cx="5983" cy="12451.3" r="5.2"/>
	<circle class="st1" cx="5983" cy="12268.8" r="5.2"/>
	<circle class="st1" cx="5983" cy="12414.8" r="5.2"/>
	<circle class="st1" cx="5983" cy="12341.8" r="5.2"/>
	<circle class="st1" cx="5983" cy="12487.8" r="5.2"/>
	<circle class="st1" cx="5983" cy="12250.6" r="5.2"/>
	<circle class="st1" cx="5983" cy="12396.6" r="5.2"/>
	<circle class="st1" cx="5983" cy="12323.6" r="5.2"/>
	<circle class="st1" cx="5983" cy="12469.5" r="5.2"/>
	<circle class="st1" cx="5983" cy="12287.1" r="5.2"/>
	<circle class="st1" cx="5983" cy="12433.1" r="5.2"/>
	<circle class="st1" cx="5983" cy="12360.1" r="5.2"/>
	<circle class="st1" cx="5983" cy="12506" r="5.2"/>
	<circle class="st1" cx="5928.3" cy="12232.3" r="5.2"/>
	<circle class="st1" cx="5928.3" cy="12378.3" r="5.2"/>
	<circle class="st1" cx="5928.3" cy="12305.3" r="5.2"/>
	<circle class="st1" cx="5928.3" cy="12451.3" r="5.2"/>
	<circle class="st1" cx="5928.3" cy="12268.8" r="5.2"/>
	<circle class="st1" cx="5928.3" cy="12414.8" r="5.2"/>
	<circle class="st1" cx="5928.3" cy="12341.8" r="5.2"/>
	<circle class="st1" cx="5928.3" cy="12487.8" r="5.2"/>
	<circle class="st1" cx="5928.3" cy="12250.6" r="5.2"/>
	<circle class="st1" cx="5928.3" cy="12396.6" r="5.2"/>
	<circle class="st1" cx="5928.3" cy="12323.6" r="5.2"/>
	<circle class="st1" cx="5928.3" cy="12469.5" r="5.2"/>
	<circle class="st1" cx="5928.3" cy="12287.1" r="5.2"/>
	<circle class="st1" cx="5928.3" cy="12433.1" r="5.2"/>
	<circle class="st1" cx="5928.3" cy="12360.1" r="5.2"/>
	<circle class="st1" cx="5928.3" cy="12506" r="5.2"/>
	<circle class="st1" cx="5964.8" cy="12232.3" r="5.2"/>
	<circle class="st1" cx="5964.8" cy="12378.3" r="5.2"/>
	<circle class="st1" cx="5964.8" cy="12305.3" r="5.2"/>
	<circle class="st1" cx="5964.8" cy="12451.3" r="5.2"/>
	<circle class="st1" cx="5964.8" cy="12268.8" r="5.2"/>
	<circle class="st1" cx="5964.8" cy="12414.8" r="5.2"/>
	<circle class="st1" cx="5964.8" cy="12341.8" r="5.2"/>
	<circle class="st1" cx="5964.8" cy="12487.8" r="5.2"/>
	<circle class="st1" cx="5964.8" cy="12250.6" r="5.2"/>
	<circle class="st1" cx="5964.8" cy="12396.6" r="5.2"/>
	<circle class="st1" cx="5964.8" cy="12323.6" r="5.2"/>
	<circle class="st1" cx="5964.8" cy="12469.5" r="5.2"/>
	<circle class="st1" cx="5964.8" cy="12287.1" r="5.2"/>
	<circle class="st1" cx="5964.8" cy="12433.1" r="5.2"/>
	<circle class="st1" cx="5964.8" cy="12360.1" r="5.2"/>
	<circle class="st1" cx="5964.8" cy="12506" r="5.2"/>
	<circle class="st1" cx="6001.3" cy="12232.3" r="5.2"/>
	<circle class="st1" cx="6001.3" cy="12378.3" r="5.2"/>
	<circle class="st1" cx="6001.3" cy="12305.3" r="5.2"/>
	<circle class="st1" cx="6001.3" cy="12451.3" r="5.2"/>
	<circle class="st1" cx="6001.3" cy="12268.8" r="5.2"/>
	<circle class="st1" cx="6001.3" cy="12414.8" r="5.2"/>
	<circle class="st1" cx="6001.3" cy="12341.8" r="5.2"/>
	<circle class="st1" cx="6001.3" cy="12487.8" r="5.2"/>
	<circle class="st1" cx="6001.3" cy="12250.6" r="5.2"/>
	<circle class="st1" cx="6001.3" cy="12396.6" r="5.2"/>
	<circle class="st1" cx="6001.3" cy="12323.6" r="5.2"/>
	<circle class="st1" cx="6001.3" cy="12469.5" r="5.2"/>
	<circle class="st1" cx="6001.3" cy="12287.1" r="5.2"/>
	<circle class="st1" cx="6001.3" cy="12433.1" r="5.2"/>
	<circle class="st1" cx="6001.3" cy="12360.1" r="5.2"/>
	<circle class="st1" cx="6001.3" cy="12506" r="5.2"/>
</g>
<ellipse class="st2" cx="298.4" cy="11" rx="73.6" ry="73.3"/>
</svg>
